<?xml version="1.0" encoding="utf-8"?>
<!-- Generator: Adobe Illustrator 26.1.0, SVG Export Plug-In . SVG Version: 6.00 Build 0)  -->
<svg version="1.1" id="Layer_1" xmlns="http://www.w3.org/2000/svg" xmlns:xlink="http://www.w3.org/1999/xlink" x="0px" y="0px"
	 viewBox="0 0 122.9 95.9" style="enable-background:new 0 0 122.9 95.9;" xml:space="preserve">
<style type="text/css">
	.st0{fill-rule:evenodd;clip-rule:evenodd;fill:#FFFFFF;}
</style>
<g>
	<path class="st0" d="M8.9,0h105c4.9,0,8.9,4,8.9,8.9l0,0c0,4.9-4,8.9-8.9,8.9H8.9C4,17.9,0,13.9,0,8.9l0,0C0,4,4,0,8.9,0L8.9,0z
		 M8.9,78.1h105c4.9,0,8.9,4,8.9,8.9l0,0c0,4.9-4,8.9-8.9,8.9H8.9C4,95.9,0,91.9,0,87l0,0C0,82.1,4,78.1,8.9,78.1L8.9,78.1z M8.9,39
		h105c4.9,0,8.9,4,8.9,8.9l0,0c0,4.9-4,8.9-8.9,8.9H8.9C4,56.9,0,52.9,0,48l0,0C0,43.1,4,39,8.9,39L8.9,39z"/>
</g>
</svg>
